<svg id="visual" viewBox="0 0 900 600" width="900" height="600" xmlns="http://www.w3.org/2000/svg" xmlns:xlink="http://www.w3.org/1999/xlink" version="1.1"><rect x="0" y="0" width="900" height="600" fill="#001220"></rect><path d="M0 31L8.3 31.3C16.7 31.7 33.3 32.3 50 39.5C66.7 46.7 83.3 60.3 100 68C116.7 75.7 133.3 77.3 150 76.2C166.7 75 183.3 71 200 64.3C216.7 57.7 233.3 48.3 250 45.5C266.7 42.7 283.3 46.3 300 51.5C316.7 56.7 333.3 63.3 350 65C366.7 66.7 383.3 63.3 400 62.8C416.7 62.3 433.3 64.7 450 67.7C466.7 70.7 483.3 74.3 500 72.3C516.7 70.3 533.3 62.7 550 57C566.7 51.3 583.3 47.7 600 49.2C616.7 50.7 633.3 57.3 650 57.7C666.7 58 683.3 52 700 46.7C716.7 41.3 733.3 36.7 750 37.7C766.7 38.7 783.3 45.3 800 53.5C816.7 61.7 833.3 71.3 850 77.2C866.7 83 883.3 85 891.7 86L900 87L900 601L891.7 601C883.3 601 866.7 601 850 601C833.3 601 816.7 601 800 601C783.3 601 766.7 601 750 601C733.3 601 716.7 601 700 601C683.3 601 666.7 601 650 601C633.3 601 616.7 601 600 601C583.3 601 566.7 601 550 601C533.3 601 516.7 601 500 601C483.3 601 466.7 601 450 601C433.3 601 416.7 601 400 601C383.3 601 366.7 601 350 601C333.3 601 316.7 601 300 601C283.3 601 266.7 601 250 601C233.3 601 216.7 601 200 601C183.3 601 166.7 601 150 601C133.3 601 116.7 601 100 601C83.3 601 66.7 601 50 601C33.3 601 16.7 601 8.3 601L0 601Z" fill="#fcaf3c"></path><path d="M0 119L8.3 114C16.7 109 33.3 99 50 98.8C66.7 98.7 83.3 108.3 100 117C116.7 125.7 133.3 133.3 150 131.3C166.7 129.3 183.3 117.7 200 118.7C216.7 119.7 233.3 133.3 250 131C266.7 128.7 283.3 110.3 300 104.3C316.7 98.3 333.3 104.7 350 107C366.7 109.3 383.3 107.7 400 113.7C416.7 119.7 433.3 133.3 450 140C466.7 146.7 483.3 146.3 500 142.8C516.7 139.3 533.3 132.7 550 131.7C566.7 130.7 583.3 135.3 600 135.5C616.7 135.7 633.3 131.3 650 124.2C666.7 117 683.3 107 700 108.5C716.7 110 733.3 123 750 128.5C766.7 134 783.3 132 800 132C816.7 132 833.3 134 850 132.7C866.7 131.3 883.3 126.7 891.7 124.3L900 122L900 601L891.7 601C883.3 601 866.7 601 850 601C833.3 601 816.7 601 800 601C783.3 601 766.7 601 750 601C733.3 601 716.7 601 700 601C683.3 601 666.7 601 650 601C633.3 601 616.7 601 600 601C583.3 601 566.7 601 550 601C533.3 601 516.7 601 500 601C483.3 601 466.7 601 450 601C433.3 601 416.7 601 400 601C383.3 601 366.7 601 350 601C333.3 601 316.7 601 300 601C283.3 601 266.7 601 250 601C233.3 601 216.7 601 200 601C183.3 601 166.7 601 150 601C133.3 601 116.7 601 100 601C83.3 601 66.7 601 50 601C33.3 601 16.7 601 8.3 601L0 601Z" fill="#e39d34"></path><path d="M0 197L8.3 197.2C16.7 197.3 33.3 197.7 50 193.5C66.7 189.3 83.3 180.7 100 177.8C116.7 175 133.3 178 150 181.5C166.7 185 183.3 189 200 192.7C216.7 196.3 233.3 199.7 250 201.3C266.7 203 283.3 203 300 194.8C316.7 186.7 333.3 170.3 350 164C366.7 157.7 383.3 161.3 400 163.8C416.7 166.3 433.3 167.7 450 169.7C466.7 171.7 483.3 174.3 500 174.8C516.7 175.3 533.3 173.7 550 178.8C566.7 184 583.3 196 600 201.3C616.7 206.7 633.3 205.3 650 200C666.7 194.7 683.3 185.3 700 179.5C716.7 173.7 733.3 171.3 750 167.3C766.7 163.3 783.3 157.7 800 161.5C816.7 165.3 833.3 178.7 850 186.5C866.7 194.3 883.3 196.7 891.7 197.8L900 199L900 601L891.7 601C883.3 601 866.7 601 850 601C833.3 601 816.7 601 800 601C783.3 601 766.7 601 750 601C733.3 601 716.7 601 700 601C683.3 601 666.7 601 650 601C633.3 601 616.7 601 600 601C583.3 601 566.7 601 550 601C533.3 601 516.7 601 500 601C483.3 601 466.7 601 450 601C433.3 601 416.7 601 400 601C383.3 601 366.7 601 350 601C333.3 601 316.7 601 300 601C283.3 601 266.7 601 250 601C233.3 601 216.7 601 200 601C183.3 601 166.7 601 150 601C133.3 601 116.7 601 100 601C83.3 601 66.7 601 50 601C33.3 601 16.7 601 8.3 601L0 601Z" fill="#cb8b2d"></path><path d="M0 216L8.3 218.2C16.7 220.3 33.3 224.7 50 227.3C66.7 230 83.3 231 100 236.5C116.7 242 133.3 252 150 249.3C166.7 246.7 183.3 231.3 200 225.7C216.7 220 233.3 224 250 232.5C266.7 241 283.3 254 300 259.2C316.7 264.3 333.3 261.7 350 255.3C366.7 249 383.3 239 400 236.5C416.7 234 433.3 239 450 242.8C466.7 246.7 483.3 249.3 500 247.2C516.7 245 533.3 238 550 238.3C566.7 238.7 583.3 246.3 600 246.7C616.7 247 633.3 240 650 234.3C666.7 228.7 683.3 224.3 700 221.2C716.7 218 733.3 216 750 223C766.7 230 783.3 246 800 251C816.7 256 833.3 250 850 249.5C866.7 249 883.3 254 891.7 256.5L900 259L900 601L891.7 601C883.3 601 866.7 601 850 601C833.3 601 816.7 601 800 601C783.3 601 766.7 601 750 601C733.3 601 716.7 601 700 601C683.3 601 666.7 601 650 601C633.3 601 616.7 601 600 601C583.3 601 566.7 601 550 601C533.3 601 516.7 601 500 601C483.3 601 466.7 601 450 601C433.3 601 416.7 601 400 601C383.3 601 366.7 601 350 601C333.3 601 316.7 601 300 601C283.3 601 266.7 601 250 601C233.3 601 216.7 601 200 601C183.3 601 166.7 601 150 601C133.3 601 116.7 601 100 601C83.3 601 66.7 601 50 601C33.3 601 16.7 601 8.3 601L0 601Z" fill="#b27925"></path><path d="M0 329L8.3 324C16.7 319 33.3 309 50 308.7C66.7 308.3 83.3 317.7 100 317.3C116.7 317 133.3 307 150 306.8C166.7 306.7 183.3 316.3 200 312C216.7 307.7 233.3 289.3 250 282.2C266.7 275 283.3 279 300 283.2C316.7 287.3 333.3 291.7 350 289.5C366.7 287.3 383.3 278.7 400 280.7C416.7 282.7 433.3 295.3 450 301.8C466.7 308.3 483.3 308.7 500 310.7C516.7 312.7 533.3 316.3 550 316.5C566.7 316.7 583.3 313.3 600 308.8C616.7 304.3 633.3 298.7 650 301C666.7 303.3 683.3 313.7 700 317.3C716.7 321 733.3 318 750 309.2C766.7 300.3 783.3 285.7 800 282.7C816.7 279.7 833.3 288.3 850 296.8C866.7 305.3 883.3 313.7 891.7 317.8L900 322L900 601L891.7 601C883.3 601 866.7 601 850 601C833.3 601 816.7 601 800 601C783.3 601 766.7 601 750 601C733.3 601 716.7 601 700 601C683.3 601 666.7 601 650 601C633.3 601 616.7 601 600 601C583.3 601 566.7 601 550 601C533.3 601 516.7 601 500 601C483.3 601 466.7 601 450 601C433.3 601 416.7 601 400 601C383.3 601 366.7 601 350 601C333.3 601 316.7 601 300 601C283.3 601 266.7 601 250 601C233.3 601 216.7 601 200 601C183.3 601 166.7 601 150 601C133.3 601 116.7 601 100 601C83.3 601 66.7 601 50 601C33.3 601 16.7 601 8.3 601L0 601Z" fill="#9b681e"></path><path d="M0 353L8.3 351.2C16.7 349.3 33.3 345.7 50 347.5C66.7 349.3 83.3 356.7 100 356.5C116.7 356.3 133.3 348.7 150 348.2C166.7 347.7 183.3 354.3 200 357C216.7 359.7 233.3 358.3 250 359.5C266.7 360.7 283.3 364.3 300 368C316.7 371.7 333.3 375.3 350 374.5C366.7 373.7 383.3 368.3 400 366.8C416.7 365.3 433.3 367.7 450 367.3C466.7 367 483.3 364 500 362.7C516.7 361.3 533.3 361.7 550 357.5C566.7 353.3 583.3 344.7 600 345.3C616.7 346 633.3 356 650 358.7C666.7 361.3 683.3 356.7 700 358.2C716.7 359.7 733.3 367.3 750 367.3C766.7 367.3 783.3 359.7 800 355.3C816.7 351 833.3 350 850 353.5C866.7 357 883.3 365 891.7 369L900 373L900 601L891.7 601C883.3 601 866.7 601 850 601C833.3 601 816.7 601 800 601C783.3 601 766.7 601 750 601C733.3 601 716.7 601 700 601C683.3 601 666.7 601 650 601C633.3 601 616.7 601 600 601C583.3 601 566.7 601 550 601C533.3 601 516.7 601 500 601C483.3 601 466.7 601 450 601C433.3 601 416.7 601 400 601C383.3 601 366.7 601 350 601C333.3 601 316.7 601 300 601C283.3 601 266.7 601 250 601C233.3 601 216.7 601 200 601C183.3 601 166.7 601 150 601C133.3 601 116.7 601 100 601C83.3 601 66.7 601 50 601C33.3 601 16.7 601 8.3 601L0 601Z" fill="#845717"></path><path d="M0 447L8.3 444.5C16.7 442 33.3 437 50 436.8C66.7 436.7 83.3 441.3 100 442.7C116.7 444 133.3 442 150 433C166.7 424 183.3 408 200 402.3C216.7 396.7 233.3 401.3 250 401.3C266.7 401.3 283.3 396.7 300 400C316.7 403.3 333.3 414.7 350 417.7C366.7 420.7 383.3 415.3 400 410C416.7 404.7 433.3 399.3 450 402.3C466.7 405.3 483.3 416.7 500 422.3C516.7 428 533.3 428 550 425.8C566.7 423.7 583.3 419.3 600 417.3C616.7 415.3 633.3 415.7 650 419.2C666.7 422.7 683.3 429.3 700 426.3C716.7 423.3 733.3 410.7 750 408C766.7 405.3 783.3 412.7 800 420.8C816.7 429 833.3 438 850 440.8C866.7 443.7 883.3 440.3 891.7 438.7L900 437L900 601L891.7 601C883.3 601 866.7 601 850 601C833.3 601 816.7 601 800 601C783.3 601 766.7 601 750 601C733.3 601 716.7 601 700 601C683.3 601 666.7 601 650 601C633.3 601 616.7 601 600 601C583.3 601 566.7 601 550 601C533.3 601 516.7 601 500 601C483.3 601 466.7 601 450 601C433.3 601 416.7 601 400 601C383.3 601 366.7 601 350 601C333.3 601 316.7 601 300 601C283.3 601 266.7 601 250 601C233.3 601 216.7 601 200 601C183.3 601 166.7 601 150 601C133.3 601 116.7 601 100 601C83.3 601 66.7 601 50 601C33.3 601 16.7 601 8.3 601L0 601Z" fill="#6e4710"></path><path d="M0 466L8.3 472.3C16.7 478.7 33.3 491.3 50 498C66.7 504.7 83.3 505.3 100 503.7C116.7 502 133.3 498 150 492.5C166.7 487 183.3 480 200 480C216.7 480 233.3 487 250 484.3C266.7 481.7 283.3 469.3 300 466.8C316.7 464.3 333.3 471.7 350 470.8C366.7 470 383.3 461 400 460.8C416.7 460.7 433.3 469.3 450 476.8C466.7 484.3 483.3 490.7 500 488.2C516.7 485.7 533.3 474.3 550 471C566.7 467.7 583.3 472.3 600 476.2C616.7 480 633.3 483 650 485.2C666.7 487.3 683.3 488.7 700 485.8C716.7 483 733.3 476 750 475.7C766.7 475.3 783.3 481.7 800 488.2C816.7 494.7 833.3 501.3 850 496.5C866.7 491.7 883.3 475.3 891.7 467.2L900 459L900 601L891.7 601C883.3 601 866.7 601 850 601C833.3 601 816.7 601 800 601C783.3 601 766.7 601 750 601C733.3 601 716.7 601 700 601C683.3 601 666.7 601 650 601C633.3 601 616.7 601 600 601C583.3 601 566.7 601 550 601C533.3 601 516.7 601 500 601C483.3 601 466.7 601 450 601C433.3 601 416.7 601 400 601C383.3 601 366.7 601 350 601C333.3 601 316.7 601 300 601C283.3 601 266.7 601 250 601C233.3 601 216.7 601 200 601C183.3 601 166.7 601 150 601C133.3 601 116.7 601 100 601C83.3 601 66.7 601 50 601C33.3 601 16.7 601 8.3 601L0 601Z" fill="#583809"></path><path d="M0 553L8.3 555.5C16.7 558 33.3 563 50 564.8C66.7 566.7 83.3 565.3 100 562.5C116.7 559.7 133.3 555.3 150 555.3C166.7 555.3 183.3 559.7 200 556.8C216.7 554 233.3 544 250 536.5C266.7 529 283.3 524 300 527C316.7 530 333.3 541 350 540.8C366.7 540.7 383.3 529.3 400 522.7C416.7 516 433.3 514 450 519.3C466.7 524.7 483.3 537.3 500 537.5C516.7 537.7 533.3 525.3 550 527.3C566.7 529.3 583.3 545.7 600 552.3C616.7 559 633.3 556 650 552.3C666.7 548.7 683.3 544.3 700 538.5C716.7 532.7 733.3 525.3 750 521.3C766.7 517.3 783.3 516.7 800 516.8C816.7 517 833.3 518 850 524.8C866.7 531.7 883.3 544.3 891.7 550.7L900 557L900 601L891.7 601C883.3 601 866.7 601 850 601C833.3 601 816.7 601 800 601C783.3 601 766.7 601 750 601C733.3 601 716.7 601 700 601C683.3 601 666.7 601 650 601C633.3 601 616.7 601 600 601C583.3 601 566.7 601 550 601C533.3 601 516.7 601 500 601C483.3 601 466.7 601 450 601C433.3 601 416.7 601 400 601C383.3 601 366.7 601 350 601C333.3 601 316.7 601 300 601C283.3 601 266.7 601 250 601C233.3 601 216.7 601 200 601C183.3 601 166.7 601 150 601C133.3 601 116.7 601 100 601C83.3 601 66.7 601 50 601C33.3 601 16.7 601 8.3 601L0 601Z" fill="#442900"></path></svg>